HIERARCHY
ROOT Root
{
  OFFSET 0.0 0.0 0.0
  CHANNELS 6 Xposition Yposition Zposition Zrotation Yrotation Xrotation
  JOINT Hips
  {
    OFFSET 0.0 100.0 0.0
    CHANNELS 6 Xposition Yposition Zposition Zrotation Yrotation Xrotation
    JOINT Spine1
    {
      OFFSET 5.003913 -0.037094 -0.013727
      CHANNELS 3 Zrotation Yrotation Xrotation
      JOINT Spine2
      {
        OFFSET 7.125363 -1e-06 0.0
        CHANNELS 3 Zrotation Yrotation Xrotation
        JOINT Chest
        {
          OFFSET 7.594027 1e-06 0.0
          CHANNELS 3 Zrotation Yrotation Xrotation
          JOINT Neck1
          {
            OFFSET 26.313086 -0.460272 -0.181672
            CHANNELS 3 Zrotation Yrotation Xrotation
            JOINT Neck2
            {
              OFFSET 8.045911 0.0 0.0
              CHANNELS 3 Zrotation Yrotation Xrotation
              JOINT Head
              {
                OFFSET 6.432774 0.0 0.0
                CHANNELS 3 Zrotation Yrotation Xrotation
                JOINT HeadEnd
                {
                  OFFSET 16.169773 0.06451 0.00362
                  CHANNELS 3 Zrotation Yrotation Xrotation
                }
                JOINT Jaw
                {
                  OFFSET 0.108741 3.12938 0.002639
                  CHANNELS 3 Zrotation Yrotation Xrotation
                }
                JOINT LeftEye
                {
                  OFFSET 4.45173 8.166359 3.206392
                  CHANNELS 3 Zrotation Yrotation Xrotation
                }
                JOINT RightEye
                {
                  OFFSET 4.436895 8.135758 -3.222429
                  CHANNELS 3 Zrotation Yrotation Xrotation
                }
              }
            }
          }
          JOINT LeftShoulder
          {
            OFFSET 23.218927 5.195579 1.621656
            CHANNELS 3 Zrotation Yrotation Xrotation
            JOINT LeftArm
            {
              OFFSET 15.902118 2e-06 -2e-06
              CHANNELS 3 Zrotation Yrotation Xrotation
              JOINT LeftForeArm
              {
                OFFSET 28.739307 0.0 -1e-06
                CHANNELS 3 Zrotation Yrotation Xrotation
                JOINT LeftHand
                {
                  OFFSET 27.093981 -4e-06 0.0
                  CHANNELS 3 Zrotation Yrotation Xrotation
                  JOINT LeftHandThumb1
                  {
                    OFFSET 2.276781 3.380274 0.83384
                    CHANNELS 3 Zrotation Yrotation Xrotation
                    JOINT LeftHandThumb2
                    {
                      OFFSET 4.705309 -1e-06 -1e-06
                      CHANNELS 3 Zrotation Yrotation Xrotation
                      JOINT LeftHandThumb3
                      {
                        OFFSET 2.798515 0.0 3e-06
                        CHANNELS 3 Zrotation Yrotation Xrotation
                        JOINT LeftHandThumbEnd
                        {
                          OFFSET 3.180793 4e-06 -4e-06
                          CHANNELS 3 Zrotation Yrotation Xrotation
                        }
                      }
                    }
                  }
                  JOINT LeftHandIndex1
                  {
                    OFFSET 3.247786 2.352677 0.137192
                    CHANNELS 3 Zrotation Yrotation Xrotation
                    JOINT LeftHandIndex2
                    {
                      OFFSET 6.367095 1e-06 0.0
                      CHANNELS 3 Zrotation Yrotation Xrotation
                      JOINT LeftHandIndex3
                      {
                        OFFSET 3.662364 0.0 0.0
                        CHANNELS 3 Zrotation Yrotation Xrotation
                        JOINT LeftHandIndex4
                        {
                          OFFSET 2.329242 4e-06 -4e-06
                          CHANNELS 3 Zrotation Yrotation Xrotation
                          JOINT LeftHandIndexEnd
                          {
                            OFFSET 2.767823 1e-06 0.0
                            CHANNELS 3 Zrotation Yrotation Xrotation
                          }
                        }
                      }
                    }
                  }
                  JOINT LeftHandMiddle1
                  {
                    OFFSET 3.163612 0.945023 -0.406112
                    CHANNELS 3 Zrotation Yrotation Xrotation
                    JOINT LeftHandMiddle2
                    {
                      OFFSET 6.276789 3e-06 0.0
                      CHANNELS 3 Zrotation Yrotation Xrotation
                      JOINT LeftHandMiddle3
                      {
                        OFFSET 4.35652 -1e-06 4e-06
                        CHANNELS 3 Zrotation Yrotation Xrotation
                        JOINT LeftHandMiddle4
                        {
                          OFFSET 2.996877 0.0 8e-06
                          CHANNELS 3 Zrotation Yrotation Xrotation
                          JOINT LeftHandMiddleEnd
                          {
                            OFFSET 2.323256 3e-06 -4e-06
                            CHANNELS 3 Zrotation Yrotation Xrotation
                          }
                        }
                      }
                    }
                  }
                  JOINT LeftHandRing1
                  {
                    OFFSET 2.882606 -0.309162 0.107445
                    CHANNELS 3 Zrotation Yrotation Xrotation
                    JOINT LeftHandRing2
                    {
                      OFFSET 6.033198 0.0 4e-06
                      CHANNELS 3 Zrotation Yrotation Xrotation
                      JOINT LeftHandRing3
                      {
                        OFFSET 4.350578 3e-06 0.0
                        CHANNELS 3 Zrotation Yrotation Xrotation
                        JOINT LeftHandRing4
                        {
                          OFFSET 2.651321 2e-06 -7e-06
                          CHANNELS 3 Zrotation Yrotation Xrotation
                          JOINT LeftHandRingEnd
                          {
                            OFFSET 1.937663 1e-06 -4e-06
                            CHANNELS 3 Zrotation Yrotation Xrotation
                          }
                        }
                      }
                    }
                  }
                  JOINT LeftHandPinky1
                  {
                    OFFSET 2.865315 -1.525436 0.575687
                    CHANNELS 3 Zrotation Yrotation Xrotation
                    JOINT LeftHandPinky2
                    {
                      OFFSET 5.54936 1e-06 -8e-06
                      CHANNELS 3 Zrotation Yrotation Xrotation
                      JOINT LeftHandPinky3
                      {
                        OFFSET 3.070974 0.0 -4e-06
                        CHANNELS 3 Zrotation Yrotation Xrotation
                        JOINT LeftHandPinky4
                        {
                          OFFSET 1.549672 1e-06 0.0
                          CHANNELS 3 Zrotation Yrotation Xrotation
                          JOINT LeftHandPinkyEnd
                          {
                            OFFSET 1.952123 0.0 0.0
                            CHANNELS 3 Zrotation Yrotation Xrotation
                          }
                        }
                      }
                    }
                  }
                }
              }
            }
          }
          JOINT RightShoulder
          {
            OFFSET 23.161716 5.296122 -1.380114
            CHANNELS 3 Zrotation Yrotation Xrotation
            JOINT RightArm
            {
              OFFSET -16.027195 -2e-06 1.1e-05
              CHANNELS 3 Zrotation Yrotation Xrotation
              JOINT RightForeArm
              {
                OFFSET -28.736639 4e-06 2e-06
                CHANNELS 3 Zrotation Yrotation Xrotation
                JOINT RightHand
                {
                  OFFSET -27.133619 6e-06 0.0
                  CHANNELS 3 Zrotation Yrotation Xrotation
                  JOINT RightHandThumb1
                  {
                    OFFSET -2.274328 -3.351035 -0.83067
                    CHANNELS 3 Zrotation Yrotation Xrotation
                    JOINT RightHandThumb2
                    {
                      OFFSET -4.703594 -3e-06 2e-06
                      CHANNELS 3 Zrotation Yrotation Xrotation
                      JOINT RightHandThumb3
                      {
                        OFFSET -2.794935 -4e-06 -3e-06
                        CHANNELS 3 Zrotation Yrotation Xrotation
                        JOINT RightHandThumbEnd
                        {
                          OFFSET -3.183852 4e-06 1e-06
                          CHANNELS 3 Zrotation Yrotation Xrotation
                        }
                      }
                    }
                  }
                  JOINT RightHandIndex1
                  {
                    OFFSET -3.253496 -2.33755 -0.127667
                    CHANNELS 3 Zrotation Yrotation Xrotation
                    JOINT RightHandIndex2
                    {
                      OFFSET -6.344434 0.0 0.0
                      CHANNELS 3 Zrotation Yrotation Xrotation
                      JOINT RightHandIndex3
                      {
                        OFFSET -3.654871 0.0 -8e-06
                        CHANNELS 3 Zrotation Yrotation Xrotation
                        JOINT RightHandIndex4
                        {
                          OFFSET -2.327586 -1e-06 0.0
                          CHANNELS 3 Zrotation Yrotation Xrotation
                          JOINT RightHandIndexEnd
                          {
                            OFFSET -2.770001 3e-06 8e-06
                            CHANNELS 3 Zrotation Yrotation Xrotation
                          }
                        }
                      }
                    }
                  }
                  JOINT RightHandMiddle1
                  {
                    OFFSET -3.168223 -0.944764 0.411762
                    CHANNELS 3 Zrotation Yrotation Xrotation
                    JOINT RightHandMiddle2
                    {
                      OFFSET -6.266691 -1e-06 -4e-06
                      CHANNELS 3 Zrotation Yrotation Xrotation
                      JOINT RightHandMiddle3
                      {
                        OFFSET -4.348901 0.0 0.0
                        CHANNELS 3 Zrotation Yrotation Xrotation
                        JOINT RightHandMiddle4
                        {
                          OFFSET -3.00024 2e-06 -4e-06
                          CHANNELS 3 Zrotation Yrotation Xrotation
                          JOINT RightHandMiddleEnd
                          {
                            OFFSET -2.321477 -4e-06 -4e-06
                            CHANNELS 3 Zrotation Yrotation Xrotation
                          }
                        }
                      }
                    }
                  }
                  JOINT RightHandRing1
                  {
                    OFFSET -2.885654 0.293261 -0.119232
                    CHANNELS 3 Zrotation Yrotation Xrotation
                    JOINT RightHandRing2
                    {
                      OFFSET -6.032835 -1e-06 -4e-06
                      CHANNELS 3 Zrotation Yrotation Xrotation
                      JOINT RightHandRing3
                      {
                        OFFSET -4.33881 0.0 -4e-06
                        CHANNELS 3 Zrotation Yrotation Xrotation
                        JOINT RightHandRing4
                        {
                          OFFSET -2.654903 -4e-06 -4e-06
                          CHANNELS 3 Zrotation Yrotation Xrotation
                          JOINT RightHandRingEnd
                          {
                            OFFSET -1.935122 0.0 4e-06
                            CHANNELS 3 Zrotation Yrotation Xrotation
                          }
                        }
                      }
                    }
                  }
                  JOINT RightHandPinky1
                  {
                    OFFSET -2.866241 1.503904 -0.60527
                    CHANNELS 3 Zrotation Yrotation Xrotation
                    JOINT RightHandPinky2
                    {
                      OFFSET -5.553177 -2e-06 0.0
                      CHANNELS 3 Zrotation Yrotation Xrotation
                      JOINT RightHandPinky3
                      {
                        OFFSET -3.062664 -1e-06 -4e-06
                        CHANNELS 3 Zrotation Yrotation Xrotation
                        JOINT RightHandPinky4
                        {
                          OFFSET -1.546529 2e-06 4e-06
                          CHANNELS 3 Zrotation Yrotation Xrotation
                          JOINT RightHandPinkyEnd
                          {
                            OFFSET -1.952341 0.0 -4e-06
                            CHANNELS 3 Zrotation Yrotation Xrotation
                          }
                        }
                      }
                    }
                  }
                }
              }
            }
          }
        }
      }
    }
    JOINT LeftLeg
    {
      OFFSET -8.443107 2.567604 10.043214
      CHANNELS 3 Zrotation Yrotation Xrotation
      JOINT LeftShin
      {
        OFFSET 43.229198 1e-06 -1e-06
        CHANNELS 3 Zrotation Yrotation Xrotation
        JOINT LeftFoot
        {
          OFFSET 42.298611 1e-06 1e-06
          CHANNELS 3 Zrotation Yrotation Xrotation
          JOINT LeftToeBase
          {
            OFFSET 14.165858 1e-06 0.0
            CHANNELS 3 Zrotation Yrotation Xrotation
            JOINT LeftToeEnd
            {
              OFFSET 6.7141 -0.234461 0.0
              CHANNELS 3 Zrotation Yrotation Xrotation
            }
          }
        }
      }
    }
    JOINT RightLeg
    {
      OFFSET -8.303923 2.592729 -10.047278
      CHANNELS 3 Zrotation Yrotation Xrotation
      JOINT RightShin
      {
        OFFSET -43.369682 0.0 1e-06
        CHANNELS 3 Zrotation Yrotation Xrotation
        JOINT RightFoot
        {
          OFFSET -42.260784 4e-06 2e-06
          CHANNELS 3 Zrotation Yrotation Xrotation
          JOINT RightToeBase
          {
            OFFSET -14.222245 -2e-06 -1e-06
            CHANNELS 3 Zrotation Yrotation Xrotation
            JOINT RightToeEnd
            {
              OFFSET -6.660062 0.232574 -2e-06
              CHANNELS 3 Zrotation Yrotation Xrotation
            }
          }
        }
      }
    }
  }
}
MOTION
Frames: 4
Frame Time: 0.03333333333333333
0.0 0.0 0.0 0.0 -0.0 0.0 -0.667123 100.264099 5.879898 89.696228 -0.706082 90.078125 -1.354151 -0.337464 -0.017276 -11.321899 -0.632611 0.232072 17.119331 0.340126 -1.601447 22.794664 2.861024 2.697745 -2.498198 -0.76127 -1.688591 -30.286774 -1.888186 -0.983323 6e-06 -0.0 -0.0 0.007767 0.016772 -0.09073 0.067867 0.075838 -0.065152 0.0938 -0.046117 -0.11524 -110.207375 -74.209282 123.693413 40.476097 -61.597004 5.230035 28.646029 -0.380946 0.024128 1.241546 -6.600771 7.636133 17.636627 -26.322729 52.411186 -19.46666 -14.395597 29.410389 -0.0 -8.774821 -2e-06 16.326666 -18.117607 5.965692 -0.609776 -1.795654 -3.889328 -4.807089 -11.04681 -2.937852 4e-06 -20.976019 1e-06 -5.019974 -25.03356 -4.03188 6e-06 2e-06 1e-06 -10.634534 -5.68697 -3.565588 10.573275 -17.922951 -3.113901 3e-06 -13.821209 -1e-06 -0.501777 -31.181505 -4.027016 -11.577061 -59.936058 7.52827 -13.982714 -7.150198 -2.875043 13.772729 -8.401491 -3.218241 0.347735 -34.211555 0.771654 -0.963032 -17.733368 2.621021 1e-06 1e-06 1e-06 -17.346418 -20.095219 -4.201782 21.757557 -1.638374 3.866428 0.0 -6.338824 -0.0 -1.69759 -22.591747 -6.194006 1e-06 -4e-06 0.0 34.581558 -72.818657 160.93576 42.503933 -55.688637 4.419628 28.326025 -0.311495 0.083772 -11.69804 2.724771 10.215795 22.182117 -20.375898 49.933327 -16.701811 -16.743528 28.476528 -3e-06 -12.690601 -1e-06 16.285954 -17.302952 2.352215 -0.10592 -1.513857 -4.275879 -5.039042 -5.612872 -2.953557 3e-06 -11.020525 -1e-06 -6.111299 -15.895334 -3.840473 0.0 -0.0 -1e-06 -10.283371 -5.680288 -4.341838 11.028295 -11.302404 -2.372635 -1.38427 -14.238579 -6.320121 -0.625441 -26.924187 -3.827598 -3.90769 -49.635677 -4.106339 -13.708527 -7.363477 -3.720938 18.141148 -14.052739 -3.242671 5e-06 -18.78727 -1e-06 -0.429714 -8.456045 2.555504 2e-06 1e-06 -0.0 -15.923539 -20.094484 -5.473585 30.419214 -7.190824 1.73593 3e-06 -8.162925 -3e-06 -1.861904 -22.861471 -6.167941 0.0 -1e-06 -3e-06 175.370361 -5.404077 -8.795509 12.938533 -0.035843 0.033459 -77.174149 -2.467716 -6.366608 -7.334924 1.565621 2.070445 -0.999999 -0.0 -0.0 -6.024225 -3.490474 -8.249812 13.732224 0.028921 -0.044933 -77.014412 0.624082 -5.758197 -7.101165 0.793703 1.640212 -1.000002 -0.0 0.0 
0.0 0.0 0.0 0.0 -0.0 0.0 -0.669187 100.282623 5.912112 89.692863 -0.770224 90.085457 -1.374443 -0.340195 -0.027054 -11.316892 -0.619763 0.279967 17.107866 0.364273 -1.675237 22.832451 2.856581 2.688194 -2.471026 -0.773723 -1.650195 -30.202772 -1.904526 -0.996018 6e-06 -0.0 -0.0 0.00583 0.012461 -0.07534 0.068165 0.073253 -0.049469 0.094528 -0.052149 -0.100805 -110.23439 -74.26268 123.67955 40.595181 -61.630756 4.978908 28.715389 -0.439435 -0.034337 1.194452 -6.648317 7.724247 17.636623 -26.322731 52.411205 -19.466663 -14.395596 29.410389 -1e-06 -8.774821 -2e-06 16.30558 -18.064915 5.960538 -0.609776 -1.795655 -3.889323 -4.807086 -11.046811 -2.93785 6e-06 -20.976017 -2e-06 -5.019969 -25.033558 -4.031879 5e-06 -0.0 1e-06 -10.634533 -5.686969 -3.565586 10.573275 -17.922953 -3.113903 4e-06 -13.821205 0.0 -0.501775 -31.181505 -4.027016 -11.559282 -59.871841 7.585856 -13.982712 -7.150196 -2.87504 13.77273 -8.401493 -3.218243 0.347737 -34.211552 0.771655 -0.963026 -17.73337 2.62102 1e-06 1e-06 -0.0 -17.346413 -20.095211 -4.201779 21.757555 -1.638378 3.866424 1e-06 -6.338823 2e-06 -1.697586 -22.591742 -6.194003 -2e-06 -1e-06 -2e-06 34.57016 -72.837868 160.952087 42.624069 -55.701508 4.171611 28.259672 -0.313333 0.084107 -11.689905 2.707618 10.130138 22.182116 -20.375891 49.933319 -16.701815 -16.743528 28.47653 -3e-06 -12.690599 -2e-06 16.286835 -17.321457 2.34618 -0.10592 -1.513856 -4.27588 -5.039041 -5.612872 -2.953554 4e-06 -11.020523 -2e-06 -6.111296 -15.89533 -3.840476 -0.0 -0.0 -1e-06 -10.283369 -5.680287 -4.341839 11.028293 -11.302405 -2.372635 -1.384268 -14.238579 -6.320119 -0.625437 -26.924187 -3.8276 -3.956009 -49.744999 -4.07357 -13.708523 -7.363474 -3.720939 18.14115 -14.052738 -3.242676 6e-06 -18.787268 -1e-06 -0.42971 -8.456039 2.555503 0.0 1e-06 0.0 -15.923532 -20.094481 -5.473588 30.41921 -7.190827 1.735927 4e-06 -8.162925 -3e-06 -1.861902 -22.861469 -6.167941 -1e-06 -1e-06 -0.0 175.421585 -5.39286 -8.787708 12.726773 -0.024375 0.07384 -77.089691 -2.488622 -6.508682 -7.378572 1.592535 2.075984 -0.999999 0.0 0.0 -5.974775 -3.466182 -8.218647 13.528535 0.024695 -0.04208 -76.93071 0.57131 -5.701974 -7.154107 0.772081 1.63842 -1.000002 0.0 -0.0 
0.0 0.0 0.0 0.0 -0.0 0.0 -0.663846 100.289322 5.950437 89.702866 -0.832464 90.059921 -1.39537 -0.340894 -0.037691 -11.321432 -0.61308 0.297236 17.134027 0.385548 -1.699033 22.866394 2.854542 2.694773 -2.489743 -0.773149 -1.655053 -30.087339 -1.924539 -0.987412 6e-06 -0.0 0.0 0.001377 0.011153 -0.070936 0.053723 0.067487 -0.04334 0.084232 -0.049277 -0.098823 -110.318222 -74.304253 123.737877 40.697117 -61.616955 4.80873 28.814653 -0.473259 -0.082745 1.116129 -6.682895 7.661531 17.636625 -26.322727 52.411182 -19.466652 -14.395594 29.410381 1e-06 -8.77482 -2e-06 16.309807 -18.065651 5.94801 -0.609775 -1.795654 -3.889325 -4.807089 -11.046807 -2.93785 4e-06 -20.976015 -1e-06 -5.01997 -25.033556 -4.031879 5e-06 2e-06 1e-06 -10.634531 -5.68697 -3.565585 10.573269 -17.922947 -3.113898 2e-06 -13.821206 2e-06 -0.501779 -31.181505 -4.027016 -11.604503 -59.825893 7.584628 -13.982712 -7.150198 -2.875038 13.772728 -8.401489 -3.218244 0.347728 -34.211544 0.77166 -0.96303 -17.733368 2.621019 1e-06 -0.0 -0.0 -17.346416 -20.095215 -4.201779 21.757557 -1.638373 3.866426 1e-06 -6.338823 1e-06 -1.697589 -22.591742 -6.194003 -1e-06 -3e-06 -2e-06 34.483231 -72.84761 161.023834 42.673706 -55.673683 3.958564 28.261166 -0.350182 0.073429 -11.687241 2.757651 10.170061 22.182119 -20.375904 49.933327 -16.701815 -16.743528 28.476536 -3e-06 -12.6906 -1e-06 16.294134 -17.308666 2.337746 -0.105919 -1.513855 -4.27588 -5.039041 -5.612872 -2.953555 4e-06 -11.020525 -1e-06 -6.111297 -15.895334 -3.840473 -0.0 0.0 -1e-06 -10.283371 -5.680288 -4.341837 11.028294 -11.302405 -2.372634 -1.384268 -14.23858 -6.32012 -0.625439 -26.924187 -3.827599 -3.979565 -49.766712 -4.081359 -13.708525 -7.363475 -3.720936 18.141148 -14.052739 -3.242674 6e-06 -18.78727 0.0 -0.429712 -8.456043 2.555505 1e-06 -1e-06 0.0 -15.923536 -20.094486 -5.473586 30.419214 -7.190827 1.735929 4e-06 -8.162927 -2e-06 -1.861904 -22.861475 -6.167942 -1e-06 -2e-06 -1e-06 175.427124 -5.371453 -8.789224 12.636736 -0.020664 0.098282 -77.072845 -2.506118 -6.588598 -7.359949 1.608579 2.081405 -0.999998 -0.0 0.0 -6.003131 -3.474087 -8.183823 13.489357 0.025365 -0.040941 -76.925888 0.529794 -5.69381 -7.151177 0.759413 1.637354 -1.000001 -0.0 -0.0 
0.0 0.0 0.0 0.0 -0.0 0.0 -0.667607 100.291489 5.98351 89.712311 -0.879338 90.037758 -1.403914 -0.339648 -0.047367 -11.325004 -0.605695 0.292438 17.165154 0.401363 -1.690896 22.899984 2.833925 2.690024 -2.516106 -0.764299 -1.664003 -30.019449 -1.936116 -0.987578 6e-06 -0.0 0.0 -0.00279 0.010883 -0.070373 0.038046 0.062369 -0.041275 0.070809 -0.044911 -0.100359 -110.449638 -74.329849 123.875168 40.861179 -61.549068 4.682907 28.903114 -0.479079 -0.096464 1.06364 -6.641848 7.616154 17.636631 -26.322725 52.411186 -19.466656 -14.395597 29.410381 1e-06 -8.774822 -3e-06 16.297655 -18.047756 5.940386 -0.609777 -1.795653 -3.889329 -4.80709 -11.04681 -2.93785 5e-06 -20.976015 1e-06 -5.019972 -25.033556 -4.031878 6e-06 3e-06 -0.0 -10.634535 -5.686971 -3.565588 10.573272 -17.922947 -3.113901 3e-06 -13.821205 -0.0 -0.501777 -31.181501 -4.027016 -11.629423 -59.793793 7.555728 -13.982714 -7.150198 -2.87504 13.772728 -8.401491 -3.21824 0.347732 -34.211552 0.771654 -0.963029 -17.73337 2.621019 -0.0 -0.0 1e-06 -17.346422 -20.095219 -4.201777 21.757561 -1.638372 3.866426 0.0 -6.338823 1e-06 -1.697594 -22.591745 -6.194004 -1e-06 -3e-06 0.0 34.404148 -72.862785 161.092346 42.706207 -55.637043 3.868256 28.291061 -0.351604 0.069411 -11.678378 2.77504 10.168861 22.182112 -20.375891 49.933319 -16.701817 -16.74353 28.476534 -3e-06 -12.6906 -2e-06 16.288353 -17.276857 2.338339 -0.105919 -1.513857 -4.275877 -5.039041 -5.612871 -2.95356 4e-06 -11.020524 -0.0 -6.111298 -15.895334 -3.84047 0.0 1e-06 -1e-06 -10.283371 -5.680288 -4.341839 11.028294 -11.302405 -2.372633 -1.384269 -14.238579 -6.32012 -0.625437 -26.924187 -3.827601 -3.996084 -49.725094 -4.07842 -13.708526 -7.363477 -3.720941 18.141151 -14.052739 -3.242675 6e-06 -18.78727 0.0 -0.429709 -8.456043 2.555504 -0.0 -1e-06 1e-06 -15.923538 -20.094484 -5.473584 30.419218 -7.190825 1.735925 3e-06 -8.162927 -3e-06 -1.861902 -22.861479 -6.167944 -1e-06 -1e-06 -1e-06 175.423782 -5.360407 -8.806563 12.592039 -0.022035 0.107854 -77.072159 -2.511085 -6.634567 -7.331575 1.611077 2.081946 -0.999999 -0.0 -0.0 -6.042378 -3.478218 -8.140195 13.501881 0.027201 -0.045512 -76.946198 0.487882 -5.713621 -7.128375 0.74953 1.636167 -1.000002 0.0 0.0 
